<?xml version="1.0" encoding="UTF-8" standalone="no"?>
<!-- Created with Inkscape (http://www.inkscape.org/) -->

<svg
   width="84.646347mm"
   height="12.159102mm"
   viewBox="0 0 84.646347 12.159102"
   version="1.1"
   id="svg1"
   xml:space="preserve"
   xmlns="http://www.w3.org/2000/svg"
   xmlns:svg="http://www.w3.org/2000/svg"><defs
     id="defs1" /><g
     id="layer1"
     style="display:inline"
     transform="translate(-27.016127,-137.66057)"><g
       id="g1"
       transform="matrix(0.26458333,0,0,0.26458333,13.61054,124.76553)"><g
         id="Layer_1">
</g><g
         id="Layer_2">
	<path
   class="st2"
   d="m 58.91536,83.572323 13.927085,-7.40543 c 0.42665,-0.228563 0.690767,-0.670451 0.690767,-1.152972 V 50.04472 c 0,-0.985359 -1.046309,-1.615176 -1.919926,-1.152972 l -13.922006,7.41051 c -0.42665,0.228562 -0.690767,0.67045 -0.690767,1.152971 v 24.969202 c 0,0.980279 1.046309,1.610097 1.914847,1.147892 z"
   id="path1"
   style="stroke-width:0.507917" />
	<path
   class="st3"
   d="M 65.28464,94.538252 51.357555,87.132821 c -0.42665,-0.228562 -0.690767,-0.67045 -0.690767,-1.152971 V 61.010649 c 0,-0.985359 1.046309,-1.615177 1.919926,-1.152972 l 13.927085,7.40543 c 0.42665,0.228563 0.690767,0.670451 0.690767,1.152972 V 93.38528 c 0,0.985359 -1.046309,1.615176 -1.919926,1.152972 z"
   id="path2"
   style="stroke-width:0.507917" />
	<g
   id="g5"
   transform="matrix(0.50791703,0,0,0.50791703,35.637523,35.28973)">
		<g
   id="g4">
			<path
   class="st35"
   d="m 61.57,55.01 v 0.64 c 0,0.31 -0.16,0.47 -0.47,0.47 l -5.76,0.03 c -0.31,0 -0.47,-0.16 -0.47,-0.47 v -0.64 c 0,-0.31 0.15,-0.47 0.47,-0.47 l 1.67,-0.01 c 0.31,0 0.47,-0.16 0.47,-0.47 L 57.43,42.7 c 0,-0.31 -0.16,-0.47 -0.47,-0.47 H 56.4 c -0.43,0 -0.64,-0.11 -0.64,-0.34 0,-0.16 0.13,-0.4 0.38,-0.73 l 1.06,-1.31 c 0.17,-0.2 0.31,-0.33 0.43,-0.39 0.11,-0.06 0.27,-0.09 0.47,-0.09 h 0.43 c 0.31,0 0.47,0.16 0.47,0.47 l 0.06,14.24 c 0,0.31 0.16,0.47 0.47,0.47 l 1.56,-0.01 c 0.32,0 0.48,0.16 0.48,0.47 z"
   id="path3" />
			<path
   class="st35"
   d="m 63,42.8 c 0,-0.58 0.09,-1.1 0.27,-1.55 0.18,-0.45 0.42,-0.83 0.72,-1.13 0.3,-0.3 0.64,-0.53 1.01,-0.69 0.37,-0.16 0.76,-0.24 1.14,-0.24 0.4,0 0.79,0.08 1.17,0.23 0.38,0.16 0.72,0.38 1.02,0.68 0.3,0.3 0.54,0.67 0.72,1.12 0.18,0.45 0.27,0.97 0.28,1.55 l 0.04,9.87 c 0,0.6 -0.08,1.12 -0.26,1.58 -0.18,0.45 -0.41,0.83 -0.71,1.13 -0.3,0.3 -0.64,0.53 -1.01,0.68 -0.37,0.15 -0.77,0.23 -1.17,0.23 -0.39,0 -0.77,-0.07 -1.15,-0.22 -0.38,-0.15 -0.72,-0.37 -1.02,-0.67 -0.3,-0.3 -0.54,-0.67 -0.73,-1.12 -0.19,-0.45 -0.28,-0.97 -0.29,-1.57 z m 1.65,10.02 c 0,0.61 0.15,1.08 0.46,1.39 0.3,0.31 0.67,0.47 1.12,0.47 0.44,0 0.82,-0.16 1.12,-0.48 0.3,-0.32 0.46,-0.78 0.45,-1.39 L 67.75,42.66 c 0,-0.63 -0.16,-1.1 -0.47,-1.41 -0.31,-0.31 -0.68,-0.47 -1.13,-0.47 -0.44,0 -0.81,0.16 -1.11,0.48 -0.3,0.32 -0.45,0.79 -0.44,1.42 z"
   id="path4" />
		</g>
	</g>
	<g
   id="g7"
   transform="matrix(0.50791703,0,0,0.50791703,35.637523,35.28973)">
		<g
   id="g6">
			<path
   class="st2"
   d="m 48.88,96.01 c -0.4,0.01 -0.64,-0.18 -0.71,-0.59 l -0.8,-4.54 C 47.3,90.48 47.06,90.29 46.66,90.3 l -3.17,0.07 c -0.4,0.01 -0.63,0.21 -0.68,0.62 l -0.53,4.58 c -0.05,0.4 -0.28,0.61 -0.68,0.62 l -0.86,0.02 c -0.46,0.01 -0.7,-0.21 -0.71,-0.65 0,-0.02 0,-0.06 0.01,-0.13 0.01,-0.06 0.03,-0.27 0.06,-0.6 l 2.95,-22.89 c 0.05,-0.4 0.28,-0.61 0.68,-0.62 l 1.84,-0.04 c 0.4,-0.01 0.64,0.19 0.71,0.59 l 3.99,22.73 c 0.05,0.34 0.08,0.54 0.09,0.6 0.01,0.06 0.02,0.1 0.02,0.12 0.01,0.44 -0.22,0.67 -0.68,0.68 z M 45.53,80.4 c -0.27,-1.39 -0.51,-2.08 -0.75,-2.08 -0.25,0.01 -0.47,0.71 -0.65,2.11 l -0.74,6.14 c -0.05,0.38 -0.08,0.67 -0.08,0.86 0.01,0.4 0.24,0.6 0.68,0.59 l 2.03,-0.05 c 0.46,-0.01 0.69,-0.22 0.68,-0.62 0,-0.19 -0.04,-0.47 -0.11,-0.85 z"
   id="path5" />
		</g>
	</g>
	<g
   id="g21">
		<path
   class="st3"
   d="M 72.55,86.56 V 63.28 h 11.64 c 5.54,0 8.31,2.77 8.31,8.31 0,1.81 -0.69,3.19 -2.08,4.16 1.39,0.96 2.08,2.35 2.08,4.16 0,4.43 -2.77,6.65 -8.31,6.65 z M 79.2,69.93 v 3.33 h 4.99 c 1.11,0 1.66,-0.55 1.66,-1.66 0,-1.11 -0.55,-1.66 -1.66,-1.66 H 79.2 Z m 0,8.32 v 3.33 h 4.99 c 1.11,0 1.66,-0.55 1.66,-1.66 0,-1.11 -0.55,-1.66 -1.66,-1.66 H 79.2 Z"
   id="path7" />
		<path
   class="st3"
   d="m 100.94,79.91 h 6.65 v 6.65 H 94.29 V 63.28 h 6.65 z"
   id="path8" />
		<path
   class="st3"
   d="m 115.67,83.24 -1.18,3.33 h -6.65 l 8.31,-23.28 h 8.31 l 8.31,23.28 h -6.65 l -1.18,-3.33 z m 4.64,-12.97 -2.26,6.32 h 4.52 z"
   id="path9" />
		<path
   class="st3"
   d="m 142.24,63.28 h 7.48 v 6.65 h -7.48 c -1.38,0 -2.55,0.49 -3.53,1.46 -0.98,0.97 -1.46,2.15 -1.46,3.53 0,1.38 0.49,2.55 1.46,3.53 0.97,0.98 2.15,1.46 3.53,1.46 h 7.48 v 6.65 h -7.48 c -3.22,0 -5.96,-1.14 -8.23,-3.41 -2.27,-2.27 -3.41,-5.02 -3.41,-8.23 0,-3.21 1.14,-5.96 3.41,-8.23 2.27,-2.27 5.01,-3.41 8.23,-3.41 z"
   id="path10" />
		<path
   class="st3"
   d="m 158.52,76.59 v 9.98 h -6.65 V 63.28 h 6.65 v 9.98 L 166,63.28 h 7.48 l -8.31,11.67 0.02,0.02 8.3,11.59 H 166 Z"
   id="path11" />
		<path
   class="st3"
   d="m 175.78,79.91 c 2.22,0 3.33,-1.66 3.33,-4.99 V 63.28 h 6.65 v 11.64 c 0,7.76 -3.33,11.64 -9.98,11.64 h -2.44 v -6.65 z"
   id="path12" />
		<path
   class="st3"
   d="m 191.96,83.24 -1.18,3.33 h -6.65 l 8.31,-23.28 h 8.31 l 8.31,23.28 h -6.65 l -1.18,-3.33 z m 4.64,-12.97 -2.26,6.32 h 4.52 z"
   id="path13" />
		<path
   class="st3"
   d="m 218.53,63.28 h 7.48 v 6.65 h -7.48 c -1.38,0 -2.55,0.49 -3.53,1.46 -0.98,0.97 -1.46,2.15 -1.46,3.53 0,1.38 0.49,2.55 1.46,3.53 0.97,0.98 2.15,1.46 3.53,1.46 h 7.48 v 6.65 h -7.48 c -3.22,0 -5.96,-1.14 -8.23,-3.41 -2.27,-2.27 -3.41,-5.02 -3.41,-8.23 0,-3.21 1.14,-5.96 3.41,-8.23 2.27,-2.27 5.02,-3.41 8.23,-3.41 z"
   id="path14" />
		<path
   class="st3"
   d="m 234.81,76.59 v 9.98 h -6.65 V 63.28 h 6.65 v 9.98 l 7.48,-9.98 h 7.48 l -8.31,11.67 0.02,0.02 8.3,11.59 h -7.48 z"
   id="path15" />
		<path
   class="st3"
   d="m 254.76,86.56 c -0.92,0 -1.7,-0.32 -2.35,-0.97 -0.65,-0.65 -0.97,-1.43 -0.97,-2.35 0,-0.92 0.32,-1.71 0.97,-2.35 0.65,-0.65 1.43,-0.97 2.35,-0.97 0.92,0 1.7,0.32 2.35,0.97 0.65,0.65 0.97,1.43 0.97,2.35 0,0.92 -0.32,1.7 -0.97,2.35 -0.65,0.65 -1.43,0.97 -2.35,0.97 z"
   id="path16" />
		<path
   class="st2"
   d="m 277.63,63.28 h 7.48 l -1.78,6.65 h -7.48 c -1.38,0 -2.68,0.49 -3.92,1.46 -1.24,0.97 -2.04,2.15 -2.4,3.53 -0.38,1.38 -0.21,2.55 0.51,3.53 0.72,0.98 1.76,1.46 3.13,1.46 h 7.48 l -1.78,6.65 h -7.48 c -3.22,0 -5.65,-1.14 -7.32,-3.41 -1.66,-2.27 -2.06,-5.02 -1.2,-8.23 0.85,-3.21 2.72,-5.96 5.6,-8.23 2.89,-2.27 5.94,-3.41 9.16,-3.41 z"
   id="path17" />
		<path
   class="st2"
   d="m 290.07,86.56 c -3.22,0 -5.65,-1.14 -7.32,-3.41 -1.66,-2.27 -2.06,-5.02 -1.2,-8.23 0.85,-3.21 2.72,-5.96 5.6,-8.23 2.88,-2.27 5.93,-3.41 9.15,-3.41 3.22,0 5.65,1.14 7.32,3.41 1.67,2.27 2.07,5.02 1.21,8.23 -0.87,3.21 -2.74,5.96 -5.62,8.23 -2.88,2.28 -5.93,3.41 -9.14,3.41 z m 5.69,-8.11 c 1.24,-0.98 2.04,-2.15 2.42,-3.53 0.37,-1.38 0.19,-2.55 -0.52,-3.53 -0.72,-0.98 -1.76,-1.46 -3.13,-1.46 -1.38,0 -2.68,0.49 -3.92,1.46 -1.24,0.97 -2.04,2.15 -2.4,3.53 -0.38,1.38 -0.21,2.55 0.51,3.53 0.72,0.98 1.76,1.46 3.13,1.46 1.37,0 2.67,-0.49 3.91,-1.46 z"
   id="path18" />
		<path
   class="st2"
   d="m 308.27,83.24 -2.08,3.33 h -6.65 l 14.55,-23.28 h 8.31 l 2.08,23.28 h -6.65 l -0.3,-3.33 z m 8.12,-12.97 -3.96,6.32 h 4.51 z"
   id="path19" />
		<path
   class="st2"
   d="m 340.18,63.28 h 7.48 l -1.78,6.65 h -7.48 c -1.38,0 -2.68,0.49 -3.92,1.46 -1.24,0.97 -2.04,2.15 -2.4,3.53 -0.38,1.38 -0.21,2.55 0.51,3.53 0.72,0.98 1.76,1.46 3.13,1.46 h 7.48 l -1.78,6.65 h -7.48 c -3.22,0 -5.65,-1.14 -7.32,-3.41 -1.66,-2.27 -2.06,-5.02 -1.2,-8.23 0.85,-3.21 2.72,-5.96 5.6,-8.23 2.9,-2.27 5.95,-3.41 9.16,-3.41 z"
   id="path20" />
		<path
   class="st2"
   d="m 349.81,63.28 h 6.65 l -2.23,8.31 h 7.48 l 2.23,-8.31 h 6.65 l -6.24,23.28 h -6.65 l 2.23,-8.31 h -7.48 l -2.23,8.31 h -6.65 z"
   id="path21" />
	</g>
</g></g></g><style
     type="text/css"
     id="style1">
	.st0{fill:url(#SVGID_1_);}
	.st1{opacity:0.28;fill:url(#);}
	.st2{fill:#FA3435;}
	.st3{fill:#FFFFFF;}
	.st4{fill:#4FBAB9;}
	.st5{clip-path:url(#SVGID_00000126313660772328329790000012901433026505191813_);fill:url(#);}
	.st6{clip-path:url(#SVGID_00000054946602852227356580000008387007880674424964_);}
	.st7{fill:#063D70;}
	.st8{fill:none;stroke:#063D70;stroke-width:2.0508;stroke-linecap:round;stroke-linejoin:round;stroke-miterlimit:10;}
	.st9{clip-path:url(#SVGID_00000023267547380778143410000012395432599964895923_);}
	.st10{fill:#FF3334;}
	.st11{fill:none;stroke:#FFFEFF;stroke-width:0.961;stroke-miterlimit:10;}
	.st12{fill:none;stroke:#FFFEFF;stroke-width:1.9609;stroke-miterlimit:10;}
	.st13{fill:none;stroke:#FFFEFF;stroke-width:1.8507;stroke-miterlimit:10;}
	.st14{clip-path:url(#SVGID_00000044166182753348998690000000769067701764945058_);}
	.st15{fill:#FF3334;stroke:#FFFEFF;stroke-width:1.9219;stroke-linecap:round;stroke-linejoin:round;stroke-miterlimit:10;}
	.st16{fill:none;stroke:#FFFEFF;stroke-width:1.2372;stroke-linecap:round;stroke-linejoin:round;stroke-miterlimit:10;}
	.st17{fill:#FFFEFF;}
	
		.st18{clip-path:url(#SVGID_00000044166182753348998690000000769067701764945058_);fill:#FF3334;stroke:#FFFEFF;stroke-width:1.9219;stroke-linecap:round;stroke-linejoin:round;stroke-miterlimit:10;}
	
		.st19{clip-path:url(#SVGID_00000044166182753348998690000000769067701764945058_);fill:none;stroke:#FFFEFF;stroke-width:1.2372;stroke-linecap:round;stroke-linejoin:round;stroke-miterlimit:10;}
	.st20{fill:none;stroke:#FFFEFF;stroke-width:15.7708;stroke-miterlimit:10;}
	.st21{fill:none;stroke:#FFFEFF;stroke-width:1.609;stroke-miterlimit:10;}
	.st22{clip-path:url(#SVGID_00000155841684087921267300000009007047192215241404_);}
	.st23{fill:none;stroke:#FFFEFF;stroke-width:2.023;stroke-miterlimit:10;}
	.st24{fill:none;stroke:#FFFEFF;stroke-width:0.8364;stroke-linecap:round;stroke-linejoin:round;stroke-miterlimit:10;}
	.st25{fill:none;stroke:#FFFEFF;stroke-width:5.8102;stroke-miterlimit:10;}
	.st26{fill:none;stroke:#FFFEFF;stroke-width:0.6112;stroke-linecap:round;stroke-linejoin:round;stroke-miterlimit:10;}
	.st27{fill:none;stroke:#FFFEFF;stroke-width:0.5928;stroke-miterlimit:10;}
	
		.st28{clip-path:url(#SVGID_00000134251323779128281030000000233334538038195363_);fill:none;stroke:#FFFEFF;stroke-width:0.5928;stroke-miterlimit:10;}
	
		.st29{clip-path:url(#SVGID_00000173141570002628369770000009992843720925822633_);fill:none;stroke:#FFFEFF;stroke-width:0.5928;stroke-miterlimit:10;}
	.st30{fill:#606060;}
	.st31{fill:#FFFFFF;stroke:#FFFFFF;stroke-width:12.6451;stroke-linecap:round;stroke-linejoin:round;stroke-miterlimit:10;}
	.st32{fill:none;stroke:#000000;stroke-width:0.8111;stroke-miterlimit:10;}
	.st33{fill:none;stroke:#000000;stroke-width:0.7028;stroke-miterlimit:10;}
	.st34{fill:none;stroke:#000000;stroke-width:1.1249;stroke-miterlimit:10;}
	.st35{fill:#F5F5F5;}
</style></svg>
