
<svg version="1.1" xmlns="http://www.w3.org/2000/svg" xmlns:xlink="http://www.w3.org/1999/xlink" x="0px" y="0px"
	 viewBox="0 0 392.55 144.13" style="enable-background:new 0 0 392.55 144.13;" xml:space="preserve">

<g id="Layer_1">
</g>
<g id="Layer_2">
	<path class="st2" d="M45.83,95.06l27.42-14.58c0.84-0.45,1.36-1.32,1.36-2.27V29.05c0-1.94-2.06-3.18-3.78-2.27L43.42,41.37
		c-0.84,0.45-1.36,1.32-1.36,2.27v49.16C42.06,94.73,44.12,95.97,45.83,95.06z"/>
	<path class="st3" d="M58.37,116.65l-27.42-14.58c-0.84-0.45-1.36-1.32-1.36-2.27V50.64c0-1.94,2.06-3.18,3.78-2.27l27.42,14.58
		c0.84,0.45,1.36,1.32,1.36,2.27v49.16C62.15,116.32,60.09,117.56,58.37,116.65z"/>
	<g>
		<g>
			<path class="st35" d="M61.57,55.01l0,0.64c0,0.31-0.16,0.47-0.47,0.47l-5.76,0.03c-0.31,0-0.47-0.16-0.47-0.47l0-0.64
				c0-0.31,0.15-0.47,0.47-0.47l1.67-0.01c0.31,0,0.47-0.16,0.47-0.47L57.43,42.7c0-0.31-0.16-0.47-0.47-0.47l-0.56,0
				c-0.43,0-0.64-0.11-0.64-0.34c0-0.16,0.13-0.4,0.38-0.73l1.06-1.31c0.17-0.2,0.31-0.33,0.43-0.39c0.11-0.06,0.27-0.09,0.47-0.09
				l0.43,0c0.31,0,0.47,0.16,0.47,0.47l0.06,14.24c0,0.31,0.16,0.47,0.47,0.47l1.56-0.01C61.41,54.54,61.57,54.7,61.57,55.01z"/>
			<path class="st35" d="M63,42.8c0-0.58,0.09-1.1,0.27-1.55c0.18-0.45,0.42-0.83,0.72-1.13c0.3-0.3,0.64-0.53,1.01-0.69
				s0.76-0.24,1.14-0.24c0.4,0,0.79,0.08,1.17,0.23c0.38,0.16,0.72,0.38,1.02,0.68c0.3,0.3,0.54,0.67,0.72,1.12s0.27,0.97,0.28,1.55
				l0.04,9.87c0,0.6-0.08,1.12-0.26,1.58c-0.18,0.45-0.41,0.83-0.71,1.13c-0.3,0.3-0.64,0.53-1.01,0.68s-0.77,0.23-1.17,0.23
				c-0.39,0-0.77-0.07-1.15-0.22c-0.38-0.15-0.72-0.37-1.02-0.67c-0.3-0.3-0.54-0.67-0.73-1.12c-0.19-0.45-0.28-0.97-0.29-1.57
				L63,42.8z M64.65,52.82c0,0.61,0.15,1.08,0.46,1.39c0.3,0.31,0.67,0.47,1.12,0.47c0.44,0,0.82-0.16,1.12-0.48
				c0.3-0.32,0.46-0.78,0.45-1.39l-0.05-10.15c0-0.63-0.16-1.1-0.47-1.41c-0.31-0.31-0.68-0.47-1.13-0.47
				c-0.44,0-0.81,0.16-1.11,0.48c-0.3,0.32-0.45,0.79-0.44,1.42L64.65,52.82z"/>
		</g>
	</g>
	<g>
		<g>
			<path class="st2" d="M48.88,96.01c-0.4,0.01-0.64-0.18-0.71-0.59l-0.8-4.54c-0.07-0.4-0.31-0.59-0.71-0.58l-3.17,0.07
				c-0.4,0.01-0.63,0.21-0.68,0.62l-0.53,4.58c-0.05,0.4-0.28,0.61-0.68,0.62l-0.86,0.02c-0.46,0.01-0.7-0.21-0.71-0.65
				c0-0.02,0-0.06,0.01-0.13c0.01-0.06,0.03-0.27,0.06-0.6l2.95-22.89c0.05-0.4,0.28-0.61,0.68-0.62l1.84-0.04
				c0.4-0.01,0.64,0.19,0.71,0.59l3.99,22.73c0.05,0.34,0.08,0.54,0.09,0.6c0.01,0.06,0.02,0.1,0.02,0.12
				c0.01,0.44-0.22,0.67-0.68,0.68L48.88,96.01z M45.53,80.4c-0.27-1.39-0.51-2.08-0.75-2.08c-0.25,0.01-0.47,0.71-0.65,2.11
				l-0.74,6.14c-0.05,0.38-0.08,0.67-0.08,0.86c0.01,0.4,0.24,0.6,0.68,0.59l2.03-0.05c0.46-0.01,0.69-0.22,0.68-0.62
				c0-0.19-0.04-0.47-0.11-0.85L45.53,80.4z"/>
		</g>
	</g>
	<g>
		<path class="st3" d="M72.55,86.56V63.28h11.64c5.54,0,8.31,2.77,8.31,8.31c0,1.81-0.69,3.19-2.08,4.16
			c1.39,0.96,2.08,2.35,2.08,4.16c0,4.43-2.77,6.65-8.31,6.65H72.55z M79.2,69.93v3.33h4.99c1.11,0,1.66-0.55,1.66-1.66
			c0-1.11-0.55-1.66-1.66-1.66H79.2z M79.2,78.25v3.33h4.99c1.11,0,1.66-0.55,1.66-1.66s-0.55-1.66-1.66-1.66H79.2z"/>
		<path class="st3" d="M100.94,79.91h6.65v6.65h-13.3V63.28h6.65V79.91z"/>
		<path class="st3" d="M115.67,83.24l-1.18,3.33h-6.65l8.31-23.28h8.31l8.31,23.28h-6.65l-1.18-3.33H115.67z M120.31,70.27
			l-2.26,6.32h4.52L120.31,70.27z"/>
		<path class="st3" d="M142.24,63.28h7.48v6.65h-7.48c-1.38,0-2.55,0.49-3.53,1.46s-1.46,2.15-1.46,3.53s0.49,2.55,1.46,3.53
			s2.15,1.46,3.53,1.46h7.48v6.65h-7.48c-3.22,0-5.96-1.14-8.23-3.41c-2.27-2.27-3.41-5.02-3.41-8.23s1.14-5.96,3.41-8.23
			S139.02,63.28,142.24,63.28z"/>
		<path class="st3" d="M158.52,76.59v9.98h-6.65V63.28h6.65v9.98l7.48-9.98h7.48l-8.31,11.67l0.02,0.02l8.3,11.59H166L158.52,76.59z
			"/>
		<path class="st3" d="M175.78,79.91c2.22,0,3.33-1.66,3.33-4.99V63.28h6.65v11.64c0,7.76-3.33,11.64-9.98,11.64h-2.44v-6.65H175.78
			z"/>
		<path class="st3" d="M191.96,83.24l-1.18,3.33h-6.65l8.31-23.28h8.31l8.31,23.28h-6.65l-1.18-3.33H191.96z M196.6,70.27
			l-2.26,6.32h4.52L196.6,70.27z"/>
		<path class="st3" d="M218.53,63.28h7.48v6.65h-7.48c-1.38,0-2.55,0.49-3.53,1.46s-1.46,2.15-1.46,3.53s0.49,2.55,1.46,3.53
			s2.15,1.46,3.53,1.46h7.48v6.65h-7.48c-3.22,0-5.96-1.14-8.23-3.41c-2.27-2.27-3.41-5.02-3.41-8.23s1.14-5.96,3.41-8.23
			S215.32,63.28,218.53,63.28z"/>
		<path class="st3" d="M234.81,76.59v9.98h-6.65V63.28h6.65v9.98l7.48-9.98h7.48l-8.31,11.67l0.02,0.02l8.3,11.59h-7.48
			L234.81,76.59z"/>
		<path class="st3" d="M254.76,86.56c-0.92,0-1.7-0.32-2.35-0.97c-0.65-0.65-0.97-1.43-0.97-2.35c0-0.92,0.32-1.71,0.97-2.35
			c0.65-0.65,1.43-0.97,2.35-0.97c0.92,0,1.7,0.32,2.35,0.97s0.97,1.43,0.97,2.35c0,0.92-0.32,1.7-0.97,2.35
			S255.68,86.56,254.76,86.56z"/>
		<path class="st2" d="M277.63,63.28h7.48l-1.78,6.65h-7.48c-1.38,0-2.68,0.49-3.92,1.46s-2.04,2.15-2.4,3.53
			c-0.38,1.38-0.21,2.55,0.51,3.53s1.76,1.46,3.13,1.46h7.48l-1.78,6.65h-7.48c-3.22,0-5.65-1.14-7.32-3.41
			c-1.66-2.27-2.06-5.02-1.2-8.23c0.85-3.21,2.72-5.96,5.6-8.23C271.36,64.42,274.41,63.28,277.63,63.28z"/>
		<path class="st2" d="M290.07,86.56c-3.22,0-5.65-1.14-7.32-3.41c-1.66-2.27-2.06-5.02-1.2-8.23c0.85-3.21,2.72-5.96,5.6-8.23
			c2.88-2.27,5.93-3.41,9.15-3.41s5.65,1.14,7.32,3.41s2.07,5.02,1.21,8.23c-0.87,3.21-2.74,5.96-5.62,8.23
			C296.33,85.43,293.28,86.56,290.07,86.56z M295.76,78.45c1.24-0.98,2.04-2.15,2.42-3.53c0.37-1.38,0.19-2.55-0.52-3.53
			c-0.72-0.98-1.76-1.46-3.13-1.46c-1.38,0-2.68,0.49-3.92,1.46s-2.04,2.15-2.4,3.53c-0.38,1.38-0.21,2.55,0.51,3.53
			s1.76,1.46,3.13,1.46C293.22,79.91,294.52,79.42,295.76,78.45z"/>
		<path class="st2" d="M308.27,83.24l-2.08,3.33h-6.65l14.55-23.28h8.31l2.08,23.28h-6.65l-0.3-3.33H308.27z M316.39,70.27
			l-3.96,6.32h4.51L316.39,70.27z"/>
		<path class="st2" d="M340.18,63.28h7.48l-1.78,6.65h-7.48c-1.38,0-2.68,0.49-3.92,1.46s-2.04,2.15-2.4,3.53
			c-0.38,1.38-0.21,2.55,0.51,3.53s1.76,1.46,3.13,1.46h7.48l-1.78,6.65h-7.48c-3.22,0-5.65-1.14-7.32-3.41
			c-1.66-2.27-2.06-5.02-1.2-8.23c0.85-3.21,2.72-5.96,5.6-8.23C333.92,64.42,336.97,63.28,340.18,63.28z"/>
		<path class="st2" d="M349.81,63.28h6.65l-2.23,8.31h7.48l2.23-8.31h6.65l-6.24,23.28h-6.65l2.23-8.31h-7.48l-2.23,8.31h-6.65
			L349.81,63.28z"/>
	</g>
</g>
</svg>
