<?xml version="1.0" encoding="UTF-8"?><svg id="Layer_2" xmlns="http://www.w3.org/2000/svg" viewBox="0 0 392.551 144.131"><polygon points="67.705 94.054 76.677 94.054 76.677 58.097 47.499 58.097 67.705 94.054" fill="#fff"/><path d="M67.607,87.73v-23.279h11.641c5.542,0,8.313,2.771,8.313,8.313,0,1.808-.692,3.193-2.078,4.157,1.386.965,2.078,2.351,2.078,4.157,0,4.435-2.771,6.651-8.313,6.651h-11.641ZM74.258,71.102v3.325h4.989c1.108,0,1.662-.554,1.662-1.663s-.554-1.662-1.662-1.662h-4.989ZM74.258,79.416v3.326h4.989c1.108,0,1.662-.555,1.662-1.663s-.554-1.663-1.662-1.663h-4.989Z" fill="#fff" stroke="#fff" stroke-linecap="round" stroke-linejoin="round" stroke-width="12.645"/><path d="M95.991,81.079h6.651v6.651h-13.303v-23.279h6.651v16.628Z" fill="#fff" stroke="#fff" stroke-linecap="round" stroke-linejoin="round" stroke-width="12.645"/><path d="M110.724,84.405l-1.181,3.325h-6.651l8.314-23.279h8.314l8.313,23.279h-6.65l-1.181-3.325h-9.279ZM115.363,71.435l-2.262,6.319h4.523l-2.262-6.319Z" fill="#fff" stroke="#fff" stroke-linecap="round" stroke-linejoin="round" stroke-width="12.645"/><path d="M137.297,64.451h7.482v6.651h-7.482c-1.375,0-2.55.487-3.525,1.463s-1.464,2.15-1.464,3.525.488,2.55,1.464,3.525,2.15,1.463,3.525,1.463h7.482v6.651h-7.482c-3.216,0-5.959-1.136-8.231-3.409-2.272-2.272-3.409-5.016-3.409-8.23s1.137-5.959,3.409-8.231,5.016-3.408,8.231-3.408Z" fill="#fff" stroke="#fff" stroke-linecap="round" stroke-linejoin="round" stroke-width="12.645"/><path d="M153.575,77.754v9.977h-6.651v-23.279h6.651v9.977l7.483-9.977h7.482l-8.314,11.673.017.017,8.298,11.59h-7.482l-7.483-9.977Z" fill="#fff" stroke="#fff" stroke-linecap="round" stroke-linejoin="round" stroke-width="12.645"/><path d="M170.835,81.079c2.218,0,3.326-1.663,3.326-4.988v-11.64h6.651v11.64c0,7.76-3.326,11.64-9.978,11.64h-2.444v-6.651h2.444Z" fill="#fff" stroke="#fff" stroke-linecap="round" stroke-linejoin="round" stroke-width="12.645"/><path d="M187.015,84.405l-1.181,3.325h-6.651l8.314-23.279h8.314l8.313,23.279h-6.65l-1.181-3.325h-9.279ZM191.654,71.435l-2.262,6.319h4.523l-2.262-6.319Z" fill="#fff" stroke="#fff" stroke-linecap="round" stroke-linejoin="round" stroke-width="12.645"/><path d="M213.587,64.451h7.482v6.651h-7.482c-1.375,0-2.55.487-3.525,1.463s-1.464,2.15-1.464,3.525.488,2.55,1.464,3.525,2.15,1.463,3.525,1.463h7.482v6.651h-7.482c-3.216,0-5.959-1.136-8.231-3.409-2.272-2.272-3.409-5.016-3.409-8.23s1.137-5.959,3.409-8.231,5.016-3.408,8.231-3.408Z" fill="#fff" stroke="#fff" stroke-linecap="round" stroke-linejoin="round" stroke-width="12.645"/><path d="M229.865,77.754v9.977h-6.651v-23.279h6.651v9.977l7.483-9.977h7.482l-8.314,11.673.017.017,8.298,11.59h-7.482l-7.483-9.977Z" fill="#fff" stroke="#fff" stroke-linecap="round" stroke-linejoin="round" stroke-width="12.645"/><path d="M249.82,87.73c-.921,0-1.704-.324-2.354-.973-.648-.648-.973-1.433-.973-2.353s.324-1.705.973-2.354c.649-.648,1.433-.973,2.354-.973s1.704.324,2.353.973.973,1.433.973,2.354-.324,1.704-.973,2.353-1.433.973-2.353.973Z" fill="#fff" stroke="#fff" stroke-linecap="round" stroke-linejoin="round" stroke-width="12.645"/><path d="M272.684,64.451h7.482l-1.779,6.651h-7.482c-1.375,0-2.68.487-3.916,1.463s-2.037,2.15-2.403,3.525c-.377,1.375-.207,2.55.508,3.525s1.76,1.463,3.134,1.463h7.483l-1.779,6.651h-7.482c-3.216,0-5.654-1.136-7.317-3.409-1.662-2.272-2.062-5.016-1.196-8.23.854-3.215,2.721-5.959,5.604-8.231,2.882-2.272,5.931-3.408,9.146-3.408Z" fill="#fff" stroke="#fff" stroke-linecap="round" stroke-linejoin="round" stroke-width="12.645"/><path d="M285.122,87.73c-3.216,0-5.654-1.136-7.317-3.409-1.662-2.272-2.062-5.016-1.196-8.23.854-3.215,2.721-5.959,5.604-8.231,2.882-2.272,5.931-3.408,9.146-3.408s5.653,1.136,7.316,3.408,2.067,5.017,1.214,8.231c-.865,3.215-2.738,5.958-5.62,8.23-2.883,2.273-5.932,3.409-9.146,3.409ZM290.817,79.616c1.236-.976,2.043-2.15,2.42-3.525.366-1.375.191-2.55-.523-3.525-.716-.976-1.761-1.463-3.135-1.463s-2.68.487-3.916,1.463-2.037,2.15-2.403,3.525c-.377,1.375-.207,2.55.508,3.525s1.76,1.463,3.134,1.463,2.681-.487,3.916-1.463Z" fill="#fff" stroke="#fff" stroke-linecap="round" stroke-linejoin="round" stroke-width="12.645"/><path d="M303.33,84.405l-2.079,3.325h-6.651l14.55-23.279h8.314l2.078,23.279h-6.65l-.3-3.325h-9.262ZM311.444,71.435l-3.957,6.319h4.506l-.549-6.319Z" fill="#fff" stroke="#fff" stroke-linecap="round" stroke-linejoin="round" stroke-width="12.645"/><path d="M335.239,64.451h7.482l-1.779,6.651h-7.482c-1.375,0-2.68.487-3.916,1.463s-2.037,2.15-2.403,3.525c-.377,1.375-.207,2.55.508,3.525s1.76,1.463,3.134,1.463h7.483l-1.779,6.651h-7.482c-3.216,0-5.654-1.136-7.317-3.409-1.662-2.272-2.062-5.016-1.196-8.23.854-3.215,2.721-5.959,5.604-8.231,2.882-2.272,5.931-3.408,9.146-3.408Z" fill="#fff" stroke="#fff" stroke-linecap="round" stroke-linejoin="round" stroke-width="12.645"/><path d="M344.867,64.451h6.651l-2.229,8.313h7.482l2.229-8.313h6.651l-6.235,23.279h-6.651l2.228-8.314h-7.482l-2.229,8.314h-6.651l6.236-23.279Z" fill="#fff" stroke="#fff" stroke-linecap="round" stroke-linejoin="round" stroke-width="12.645"/><path d="M67.607,88.066v-23.279h11.641c5.542,0,8.313,2.771,8.313,8.313,0,1.808-.692,3.193-2.078,4.157,1.386.965,2.078,2.351,2.078,4.157,0,4.435-2.771,6.651-8.313,6.651h-11.641ZM74.258,71.438v3.325h4.989c1.108,0,1.662-.554,1.662-1.663s-.554-1.662-1.662-1.662h-4.989ZM74.258,79.751v3.326h4.989c1.108,0,1.662-.555,1.662-1.663s-.554-1.663-1.662-1.663h-4.989Z"/><path d="M95.991,81.415h6.651v6.651h-13.303v-23.279h6.651v16.628Z"/><path d="M110.724,84.741l-1.181,3.325h-6.651l8.314-23.279h8.314l8.313,23.279h-6.65l-1.181-3.325h-9.279ZM115.363,71.77l-2.262,6.319h4.523l-2.262-6.319Z"/><path d="M137.297,64.787h7.482v6.651h-7.482c-1.375,0-2.55.487-3.525,1.463s-1.464,2.15-1.464,3.525.488,2.55,1.464,3.525,2.15,1.463,3.525,1.463h7.482v6.651h-7.482c-3.216,0-5.959-1.136-8.231-3.409-2.272-2.272-3.409-5.016-3.409-8.23s1.137-5.959,3.409-8.231,5.016-3.408,8.231-3.408Z"/><path d="M153.575,78.089v9.977h-6.651v-23.279h6.651v9.977l7.483-9.977h7.482l-8.314,11.673.017.017,8.298,11.59h-7.482l-7.483-9.977Z"/><path d="M170.835,81.415c2.218,0,3.326-1.663,3.326-4.988v-11.64h6.651v11.64c0,7.76-3.326,11.64-9.978,11.64h-2.444v-6.651h2.444Z"/><path d="M187.015,84.741l-1.181,3.325h-6.651l8.314-23.279h8.314l8.313,23.279h-6.65l-1.181-3.325h-9.279ZM191.654,71.77l-2.262,6.319h4.523l-2.262-6.319Z"/><path d="M213.587,64.787h7.482v6.651h-7.482c-1.375,0-2.55.487-3.525,1.463s-1.464,2.15-1.464,3.525.488,2.55,1.464,3.525,2.15,1.463,3.525,1.463h7.482v6.651h-7.482c-3.216,0-5.959-1.136-8.231-3.409-2.272-2.272-3.409-5.016-3.409-8.23s1.137-5.959,3.409-8.231,5.016-3.408,8.231-3.408Z"/><path d="M229.865,78.089v9.977h-6.651v-23.279h6.651v9.977l7.483-9.977h7.482l-8.314,11.673.017.017,8.298,11.59h-7.482l-7.483-9.977Z"/><path d="M249.82,88.066c-.921,0-1.704-.324-2.354-.973-.648-.648-.973-1.433-.973-2.353s.324-1.705.973-2.354c.649-.648,1.433-.973,2.354-.973s1.704.324,2.353.973.973,1.433.973,2.354-.324,1.704-.973,2.353-1.433.973-2.353.973Z"/><path d="M272.684,64.787h7.482l-1.779,6.651h-7.482c-1.375,0-2.68.487-3.916,1.463s-2.037,2.15-2.403,3.525c-.377,1.375-.207,2.55.508,3.525s1.76,1.463,3.134,1.463h7.483l-1.779,6.651h-7.482c-3.216,0-5.654-1.136-7.317-3.409-1.662-2.272-2.062-5.016-1.196-8.23.854-3.215,2.721-5.959,5.604-8.231,2.882-2.272,5.931-3.408,9.146-3.408Z" fill="#fa3435"/><path d="M285.122,88.066c-3.216,0-5.654-1.136-7.317-3.409-1.662-2.272-2.062-5.016-1.196-8.23.854-3.215,2.721-5.959,5.604-8.231,2.882-2.272,5.931-3.408,9.146-3.408s5.653,1.136,7.316,3.408,2.067,5.017,1.214,8.231c-.865,3.215-2.738,5.958-5.62,8.23-2.883,2.273-5.932,3.409-9.146,3.409ZM290.817,79.952c1.236-.976,2.043-2.15,2.42-3.525.366-1.375.191-2.55-.523-3.525-.716-.976-1.761-1.463-3.135-1.463s-2.68.487-3.916,1.463-2.037,2.15-2.403,3.525c-.377,1.375-.207,2.55.508,3.525s1.76,1.463,3.134,1.463,2.681-.487,3.916-1.463Z" fill="#fa3435"/><path d="M303.33,84.741l-2.079,3.325h-6.651l14.55-23.279h8.314l2.078,23.279h-6.65l-.3-3.325h-9.262ZM311.445,71.77l-3.957,6.319h4.506l-.549-6.319Z" fill="#fa3435"/><path d="M335.239,64.787h7.482l-1.779,6.651h-7.482c-1.375,0-2.68.487-3.916,1.463s-2.037,2.15-2.403,3.525c-.377,1.375-.207,2.55.508,3.525s1.76,1.463,3.134,1.463h7.483l-1.779,6.651h-7.482c-3.216,0-5.654-1.136-7.317-3.409-1.662-2.272-2.062-5.016-1.196-8.23.854-3.215,2.721-5.959,5.604-8.231,2.882-2.272,5.931-3.408,9.146-3.408Z" fill="#fa3435"/><path d="M344.867,64.787h6.651l-2.229,8.313h7.482l2.229-8.313h6.651l-6.235,23.279h-6.651l2.228-8.314h-7.482l-2.229,8.314h-6.651l6.236-23.279Z" fill="#fa3435"/><path d="M36.319,76.891l21.526,9.952c1.571.726,3.523-.194,3.523-1.662v-35.407c0-1.806-1.194-3.474-3.129-4.368l-21.501-9.94c-1.571-.726-3.523.194-3.523,1.662v35.43c0,1.792,1.185,3.446,3.104,4.333Z" fill="#fa3435"/><path d="M46.067,100.551l-21.526,9.952c-1.571.726-3.523-.194-3.523-1.662v-35.407c0-1.806,1.194-3.474,3.129-4.368l21.501-9.94c1.571-.726,3.523.194,3.523,1.662v35.43c0,1.792-1.185,3.446-3.104,4.333Z" fill="#fff"/><path d="M45.561,81.982c-.003,3.706-2.225,7.848-4.964,9.259-1.538.792-3.049.626-4.079-.332.074.63.683,5.27,2.722,5.83l-7.098,3.656c2.035-2.658,2.632-7.919,2.705-8.625-1.026,2.017-2.535,3.74-4.072,4.532-2.736,1.41-4.963-.439-4.974-4.134-.002-.622.06-1.257.178-1.892.506-3.25,1.966-5.385,4.338-9.251,2.36-3.847,5.296-10.449,5.296-10.449,0,0,2.995,3.363,5.389,5.008,2.25,1.55,3.776,1.986,4.339,4.515.144.556.222,1.186.222,1.883Z"/></svg>