<?xml version="1.0" encoding="UTF-8" standalone="no"?>
<svg
   id="Layer_2"
   viewBox="0 0 86 127"
   version="1.1"
   xmlns="http://www.w3.org/2000/svg"
   xmlns:svg="http://www.w3.org/2000/svg">
  <defs
     id="defs1">
    <clipPath
       id="clippath">
      <rect
         x="13.559"
         y="-189.944"
         width="58.259"
         height="95.737"
         rx=".084"
         ry=".084"
         fill="none"
         stroke-width="0"
         id="rect1" />
    </clipPath>
  </defs>
  <path
     d="M7.473,7.383h70.75c.458,0,.83.372.83.83v110.058c0,1.176-.955,2.13-2.13,2.13H6.643V8.213c0-.458.372-.83.83-.83Z"
     fill="none"
     stroke="#fffeff"
     stroke-miterlimit="10"
     stroke-width="5.81"
     id="path1" />
  <path
     d="M8.539,24.279c0,2.059-.69,3.942-1.827,5.379-1.137-1.437-1.827-3.32-1.827-5.379s.69-3.942,1.827-5.379c1.137,1.437,1.827,3.32,1.827,5.379Z"
     fill="#ff3334"
     stroke-width="0"
     id="path2" />
  <path
     d="M8.539,14.39c0,2.059-.69,3.942-1.827,5.379-1.137-1.437-1.827-3.32-1.827-5.379s.69-3.942,1.827-5.379c1.137,1.437,1.827,3.32,1.827,5.379Z"
     fill="#ff3334"
     stroke-width="0"
     id="path3" />
  <path
     d="M8.539,34.199c0,2.059-.69,3.942-1.827,5.379-1.137-1.437-1.827-3.32-1.827-5.379s.69-3.942,1.827-5.379c1.137,1.437,1.827,3.32,1.827,5.379Z"
     fill="#ff3334"
     stroke-width="0"
     id="path4" />
  <path
     d="M8.539,44.119c0,2.059-.69,3.942-1.827,5.379-1.137-1.437-1.827-3.32-1.827-5.379s.69-3.942,1.827-5.379c1.137,1.437,1.827,3.32,1.827,5.379Z"
     fill="#ff3334"
     stroke-width="0"
     id="path5" />
  <path
     d="M8.539,54.039c0,2.059-.69,3.942-1.827,5.379-1.137-1.437-1.827-3.32-1.827-5.379s.69-3.942,1.827-5.379c1.137,1.437,1.827,3.32,1.827,5.379Z"
     fill="#ff3334"
     stroke-width="0"
     id="path6" />
  <path
     d="M8.539,63.959c0,2.059-.69,3.942-1.827,5.379-1.137-1.437-1.827-3.32-1.827-5.379s.69-3.942,1.827-5.379c1.137,1.437,1.827,3.32,1.827,5.379Z"
     fill="#ff3334"
     stroke-width="0"
     id="path7" />
  <path
     d="M8.539,73.879c0,2.059-.69,3.942-1.827,5.379-1.137-1.437-1.827-3.32-1.827-5.379s.69-3.942,1.827-5.379c1.137,1.437,1.827,3.32,1.827,5.379Z"
     fill="#ff3334"
     stroke-width="0"
     id="path8" />
  <path
     d="M8.539,83.688c0,2.059-.69,3.942-1.827,5.379-1.137-1.437-1.827-3.32-1.827-5.379s.69-3.942,1.827-5.379c1.137,1.437,1.827,3.32,1.827,5.379Z"
     fill="#ff3334"
     stroke-width="0"
     id="path9" />
  <path
     d="M8.539,93.608c0,2.059-.69,3.942-1.827,5.379-1.137-1.437-1.827-3.32-1.827-5.379s.69-3.942,1.827-5.379c1.137,1.437,1.827,3.32,1.827,5.379Z"
     fill="#ff3334"
     stroke-width="0"
     id="path10" />
  <path
     d="M8.539,103.528c0,2.059-.69,3.942-1.827,5.379-1.137-1.437-1.827-3.32-1.827-5.379s.69-3.942,1.827-5.379c1.137,1.437,1.827,3.32,1.827,5.379Z"
     fill="#ff3334"
     stroke-width="0"
     id="path11" />
  <path
     d="M8.539,113.375c0,2.059-.69,3.942-1.827,5.379-1.137-1.437-1.827-3.32-1.827-5.379s.69-3.942,1.827-5.379c1.137,1.437,1.827,3.32,1.827,5.379Z"
     fill="#ff3334"
     stroke-width="0"
     id="path12" />
  <path
     d="M8.43,7.43c-.638.447-1.213.993-1.707,1.62-.494-.627-1.069-1.174-1.707-1.62.638-.449,1.213-.995,1.707-1.622.494.627,1.069,1.174,1.707,1.622Z"
     fill="#ff3334"
     stroke-width="0"
     id="path13" />
  <path
     d="M8.43,120.344c-.638.447-1.213.993-1.707,1.62-.494-.627-1.069-1.174-1.707-1.62.638-.449,1.213-.995,1.707-1.622.494.627,1.069,1.174,1.707,1.622Z"
     fill="#ff3334"
     stroke-width="0"
     id="path14" />
  <path
     d="M80.789,24.279c0,2.059-.69,3.942-1.827,5.379-1.137-1.437-1.827-3.32-1.827-5.379s.69-3.942,1.827-5.379c1.137,1.437,1.827,3.32,1.827,5.379Z"
     fill="#ff3334"
     stroke-width="0"
     id="path15" />
  <path
     d="M80.789,14.39c0,2.059-.69,3.942-1.827,5.379-1.137-1.437-1.827-3.32-1.827-5.379s.69-3.942,1.827-5.379c1.137,1.437,1.827,3.32,1.827,5.379Z"
     fill="#ff3334"
     stroke-width="0"
     id="path16" />
  <path
     d="M80.789,34.199c0,2.059-.69,3.942-1.827,5.379-1.137-1.437-1.827-3.32-1.827-5.379s.69-3.942,1.827-5.379c1.137,1.437,1.827,3.32,1.827,5.379Z"
     fill="#ff3334"
     stroke-width="0"
     id="path17" />
  <path
     d="M80.789,44.119c0,2.059-.69,3.942-1.827,5.379-1.137-1.437-1.827-3.32-1.827-5.379s.69-3.942,1.827-5.379c1.137,1.437,1.827,3.32,1.827,5.379Z"
     fill="#ff3334"
     stroke-width="0"
     id="path18" />
  <path
     d="M80.789,54.039c0,2.059-.69,3.942-1.827,5.379-1.137-1.437-1.827-3.32-1.827-5.379s.69-3.942,1.827-5.379c1.137,1.437,1.827,3.32,1.827,5.379Z"
     fill="#ff3334"
     stroke-width="0"
     id="path19" />
  <path
     d="M80.789,63.959c0,2.059-.69,3.942-1.827,5.379-1.137-1.437-1.827-3.32-1.827-5.379s.69-3.942,1.827-5.379c1.137,1.437,1.827,3.32,1.827,5.379Z"
     fill="#ff3334"
     stroke-width="0"
     id="path20" />
  <path
     d="M80.789,73.879c0,2.059-.69,3.942-1.827,5.379-1.137-1.437-1.827-3.32-1.827-5.379s.69-3.942,1.827-5.379c1.137,1.437,1.827,3.32,1.827,5.379Z"
     fill="#ff3334"
     stroke-width="0"
     id="path21" />
  <path
     d="M80.789,83.688c0,2.059-.69,3.942-1.827,5.379-1.137-1.437-1.827-3.32-1.827-5.379s.69-3.942,1.827-5.379c1.137,1.437,1.827,3.32,1.827,5.379Z"
     fill="#ff3334"
     stroke-width="0"
     id="path22" />
  <path
     d="M80.789,93.608c0,2.059-.69,3.942-1.827,5.379-1.137-1.437-1.827-3.32-1.827-5.379s.69-3.942,1.827-5.379c1.137,1.437,1.827,3.32,1.827,5.379Z"
     fill="#ff3334"
     stroke-width="0"
     id="path23" />
  <path
     d="M80.789,103.528c0,2.059-.69,3.942-1.827,5.379-1.137-1.437-1.827-3.32-1.827-5.379s.69-3.942,1.827-5.379c1.137,1.437,1.827,3.32,1.827,5.379Z"
     fill="#ff3334"
     stroke-width="0"
     id="path24" />
  <path
     d="M80.789,113.375c0,2.059-.69,3.942-1.827,5.379-1.137-1.437-1.827-3.32-1.827-5.379s.69-3.942,1.827-5.379c1.137,1.437,1.827,3.32,1.827,5.379Z"
     fill="#ff3334"
     stroke-width="0"
     id="path25" />
  <path
     d="M80.68,7.43c-.638.447-1.213.993-1.707,1.62-.494-.627-1.069-1.174-1.707-1.62.638-.449,1.213-.995,1.707-1.622.494.627,1.069,1.174,1.707,1.622Z"
     fill="#ff3334"
     stroke-width="0"
     id="path26" />
  <path
     d="M80.68,120.344c-.638.447-1.213.993-1.707,1.62-.494-.627-1.069-1.174-1.707-1.62.638-.449,1.213-.995,1.707-1.622.494.627,1.069,1.174,1.707,1.622Z"
     fill="#ff3334"
     stroke-width="0"
     id="path27" />
  <path
     d="M72.04,5.624c-2.024,0-3.875.683-5.287,1.808,1.413,1.125,3.263,1.808,5.287,1.808s3.875-.683,5.287-1.808c-1.413-1.125-3.263-1.808-5.287-1.808Z"
     fill="#ff3334"
     stroke-width="0"
     id="path28" />
  <path
     d="M62.289,5.624c-2.024,0-3.875.683-5.287,1.808,1.413,1.125,3.263,1.808,5.287,1.808s3.875-.683,5.287-1.808c-1.413-1.125-3.263-1.808-5.287-1.808Z"
     fill="#ff3334"
     stroke-width="0"
     id="path29" />
  <path
     d="M52.538,5.624c-2.024,0-3.875.683-5.287,1.808,1.413,1.125,3.263,1.808,5.287,1.808s3.875-.683,5.287-1.808c-1.413-1.125-3.263-1.808-5.287-1.808Z"
     fill="#ff3334"
     stroke-width="0"
     id="path30" />
  <path
     d="M42.786,5.624c-2.024,0-3.875.683-5.287,1.808,1.413,1.125,3.263,1.808,5.287,1.808s3.875-.683,5.287-1.808c-1.413-1.125-3.263-1.808-5.287-1.808Z"
     fill="#ff3334"
     stroke-width="0"
     id="path31" />
  <path
     d="M33.035,5.624c-2.024,0-3.875.683-5.287,1.808,1.413,1.125,3.263,1.808,5.287,1.808s3.875-.683,5.287-1.808c-1.413-1.125-3.263-1.808-5.287-1.808Z"
     fill="#ff3334"
     stroke-width="0"
     id="path32" />
  <path
     d="M23.284,5.624c-2.024,0-3.875.683-5.287,1.808,1.413,1.125,3.263,1.808,5.287,1.808s3.875-.683,5.287-1.808c-1.413-1.125-3.263-1.808-5.287-1.808Z"
     fill="#ff3334"
     stroke-width="0"
     id="path33" />
  <path
     d="M13.642,5.624c-2.024,0-3.875.683-5.287,1.808,1.413,1.125,3.263,1.808,5.287,1.808s3.875-.683,5.287-1.808c-1.413-1.125-3.263-1.808-5.287-1.808Z"
     fill="#ff3334"
     stroke-width="0"
     id="path34" />
  <path
     d="M72.035,118.567c-2.024,0-3.875.683-5.287,1.808,1.413,1.125,3.263,1.808,5.287,1.808s3.875-.683,5.287-1.808c-1.413-1.125-3.263-1.808-5.287-1.808Z"
     fill="#ff3334"
     stroke-width="0"
     id="path35" />
  <path
     d="M62.285,118.567c-2.024,0-3.875.683-5.287,1.808,1.413,1.125,3.263,1.808,5.287,1.808s3.875-.683,5.287-1.808c-1.413-1.125-3.263-1.808-5.287-1.808Z"
     fill="#ff3334"
     stroke-width="0"
     id="path36" />
  <path
     d="M52.534,118.567c-2.024,0-3.875.683-5.287,1.808,1.413,1.125,3.263,1.808,5.287,1.808s3.875-.683,5.287-1.808c-1.413-1.125-3.263-1.808-5.287-1.808Z"
     fill="#ff3334"
     stroke-width="0"
     id="path37" />
  <path
     d="M42.784,118.567c-2.024,0-3.875.683-5.287,1.808,1.413,1.125,3.263,1.808,5.287,1.808s3.875-.683,5.287-1.808c-1.413-1.125-3.263-1.808-5.287-1.808Z"
     fill="#ff3334"
     stroke-width="0"
     id="path38" />
  <path
     d="M33.033,118.567c-2.024,0-3.875.683-5.287,1.808,1.413,1.125,3.263,1.808,5.287,1.808s3.875-.683,5.287-1.808c-1.413-1.125-3.263-1.808-5.287-1.808Z"
     fill="#ff3334"
     stroke-width="0"
     id="path39" />
  <path
     d="M23.283,118.567c-2.024,0-3.875.683-5.287,1.808,1.413,1.125,3.263,1.808,5.287,1.808s3.875-.683,5.287-1.808c-1.413-1.125-3.263-1.808-5.287-1.808Z"
     fill="#ff3334"
     stroke-width="0"
     id="path40" />
  <path
     d="M13.642,118.567c-2.024,0-3.875.683-5.287,1.808,1.413,1.125,3.263,1.808,5.287,1.808s3.875-.683,5.287-1.808c-1.413-1.125-3.263-1.808-5.287-1.808Z"
     fill="#ff3334"
     stroke-width="0"
     id="path41" />
  <path
     d="M72.412,107.725c-.06-.096-.11-.191-.17-.287-.97-1.637-2-3.37-3.08-5.188-1.05-1.754-2.14-3.594-3.27-5.497-1.05-1.776-2.14-3.615-3.26-5.507-1.07-1.786-2.15-3.625-3.26-5.486-1.08-1.807-2.17-3.647-3.27-5.507-1.08-1.818-2.17-3.647-3.26-5.497-1.08-1.829-2.17-3.657-3.27-5.497-1.08-1.829-2.17-3.668-3.26-5.507s-2.18-3.679-3.26-5.507c-1.13-1.892-2.24-3.774-3.35-5.635-1.1-1.85-2.18-3.689-3.26-5.507-1.1-1.861-2.19-3.7-3.26-5.507-1.11-1.871-2.2-3.711-3.27-5.507-1.12-1.882-2.21-3.721-3.27-5.507-1.12-1.903-2.21-3.753-3.25-5.518-1.15-1.924-2.24-3.764-3.27-5.507-1.17-1.978-2.26-3.827-3.26-5.518"
     fill="none"
     stroke="#fffeff"
     stroke-linecap="round"
     stroke-linejoin="round"
     stroke-width=".611"
     id="path42" />
  <path
     d="M13.612,19.522c.12.202.24.415.37.627.84,1.435,1.81,3.073,2.88,4.891,1,1.69,2.09,3.54,3.27,5.518,1.02,1.733,2.11,3.583,3.26,5.507,1.04,1.776,2.13,3.615,3.25,5.518,1.06,1.786,2.15,3.625,3.27,5.507,1.07,1.797,2.16,3.647,3.27,5.518,1.07,1.807,2.16,3.647,3.26,5.507s2.22,3.742,3.34,5.635c1.08,1.829,2.17,3.668,3.27,5.507,1.08,1.829,2.17,3.668,3.26,5.507s2.18,3.668,3.26,5.497c1.1,1.85,2.19,3.689,3.27,5.507,1.1,1.85,2.19,3.679,3.26,5.497,1.1,1.861,2.19,3.689,3.27,5.497,1.11,1.871,2.19,3.7,3.26,5.497,1.12,1.882,2.2,3.721,3.26,5.497,1.13,1.903,2.22,3.742,3.26,5.497"
     fill="none"
     stroke="#fffeff"
     stroke-linecap="round"
     stroke-linejoin="round"
     stroke-width=".611"
     id="path43" />
  <path
     d="M62.632,113.264c-1.07-1.786-2.15-3.625-3.26-5.486-1.08-1.807-2.17-3.647-3.27-5.507-1.08-1.818-2.17-3.647-3.26-5.497-1.08-1.829-2.17-3.657-3.27-5.497-1.08-1.829-2.17-3.668-3.26-5.507s-2.18-3.679-3.26-5.507c-1.1-1.839-2.19-3.679-3.27-5.497-1.09-1.85-2.18-3.689-3.26-5.507-1.13-1.903-2.25-3.785-3.34-5.646-1.11-1.871-2.2-3.711-3.27-5.507-1.12-1.882-2.21-3.721-3.27-5.507-1.12-1.903-2.21-3.753-3.26-5.518-1.14-1.924-2.23-3.764-3.26-5.507-1.17-1.978-2.26-3.827-3.26-5.518-1.07-1.818-2.04-3.455-2.88-4.891-.13-.213-.25-.425-.38-.627"
     fill="none"
     stroke="#fffeff"
     stroke-linecap="round"
     stroke-linejoin="round"
     stroke-width=".611"
     id="path44" />
  <path
     d="M56.112,113.286c-1.08-1.818-2.17-3.657-3.27-5.507-1.08-1.829-2.17-3.657-3.27-5.497-1.08-1.829-2.17-3.668-3.26-5.507s-2.18-3.679-3.26-5.507c-1.1-1.839-2.19-3.679-3.27-5.497-1.09-1.85-2.18-3.689-3.26-5.507-1.1-1.861-2.19-3.7-3.26-5.507-1.14-1.914-2.26-3.806-3.35-5.646-1.12-1.882-2.21-3.721-3.27-5.507-1.12-1.903-2.21-3.753-3.25-5.518-1.15-1.924-2.24-3.764-3.27-5.507-1.17-1.978-2.26-3.827-3.26-5.518-1.07-1.818-2.04-3.455-2.88-4.891-.13-.213-.25-.425-.37-.627"
     fill="none"
     stroke="#fffeff"
     stroke-linecap="round"
     stroke-linejoin="round"
     stroke-width=".611"
     id="path45" />
  <path
     d="M49.572,113.286c-1.08-1.829-2.17-3.657-3.26-5.497s-2.18-3.679-3.26-5.507c-1.1-1.839-2.19-3.679-3.27-5.507-1.09-1.85-2.18-3.679-3.26-5.497-1.1-1.861-2.19-3.711-3.27-5.518-1.11-1.871-2.19-3.711-3.26-5.507-1.14-1.935-2.26-3.817-3.35-5.646-1.12-1.903-2.21-3.742-3.25-5.518-1.15-1.924-2.24-3.774-3.26-5.507-1.18-1.978-2.27-3.827-3.27-5.518-1.07-1.818-2.04-3.455-2.88-4.891-.13-.213-.25-.425-.37-.627"
     fill="none"
     stroke="#fffeff"
     stroke-linecap="round"
     stroke-linejoin="round"
     stroke-width=".611"
     id="path46" />
  <path
     d="M43.052,113.286c-1.1-1.839-2.19-3.679-3.27-5.497-1.09-1.85-2.18-3.689-3.26-5.507-1.1-1.861-2.19-3.7-3.26-5.507-1.11-1.871-2.2-3.711-3.27-5.507-1.11-1.882-2.2-3.721-3.27-5.507-1.15-1.956-2.27-3.849-3.33-5.656-1.15-1.924-2.24-3.764-3.27-5.507-1.17-1.978-2.26-3.827-3.26-5.518-1.07-1.818-2.04-3.455-2.88-4.891-.13-.213-.25-.425-.38-.627"
     fill="none"
     stroke="#fffeff"
     stroke-linecap="round"
     stroke-linejoin="round"
     stroke-width=".611"
     id="path47" />
  <path
     d="M13.612,74.564c.12.202.24.415.37.627.84,1.435,1.81,3.073,2.88,4.891,1,1.69,2.09,3.54,3.27,5.518,1.05,1.776,2.16,3.668,3.33,5.646,1.05,1.765,2.14,3.615,3.26,5.518,1.07,1.786,2.16,3.625,3.27,5.507,1.07,1.797,2.16,3.636,3.27,5.507,1.07,1.807,2.16,3.647,3.26,5.507"
     fill="none"
     stroke="#fffeff"
     stroke-linecap="round"
     stroke-linejoin="round"
     stroke-width=".611"
     id="path48" />
  <path
     d="M13.602,85.579c.13.202.25.415.38.627.84,1.435,1.81,3.073,2.88,4.891,1.02,1.722,2.14,3.615,3.34,5.646,1.03,1.744,2.12,3.583,3.26,5.518,1.05,1.765,2.14,3.615,3.26,5.518,1.06,1.776,2.15,3.615,3.27,5.497"
     fill="none"
     stroke="#fffeff"
     stroke-linecap="round"
     stroke-linejoin="round"
     stroke-width=".611"
     id="path49" />
  <path
     d="M13.602,96.583c.13.202.25.415.38.627.86,1.467,1.86,3.158,2.96,5.029,1,1.69,2.1,3.54,3.26,5.518,1.03,1.744,2.12,3.583,3.26,5.507"
     fill="none"
     stroke="#fffeff"
     stroke-linecap="round"
     stroke-linejoin="round"
     stroke-width=".611"
     id="path50" />
  <path
     d="M16.942,113.243c-1.1-1.871-2.09-3.551-2.96-5.018-.1-.17-.2-.34-.3-.5"
     fill="none"
     stroke="#fffeff"
     stroke-linecap="round"
     stroke-linejoin="round"
     stroke-width=".611"
     id="path51" />
  <path
     d="M69.242,14.047c1.05,1.776,2.05,3.466,3,5.061.08.149.17.287.25.425"
     fill="none"
     stroke="#fffeff"
     stroke-linecap="round"
     stroke-linejoin="round"
     stroke-width=".611"
     id="path52" />
  <path
     d="M62.632,13.919c1.14,1.935,2.26,3.817,3.34,5.635,1.13,1.903,2.22,3.742,3.27,5.497,1.05,1.776,2.05,3.466,3,5.061.08.149.17.287.25.425"
     fill="none"
     stroke="#fffeff"
     stroke-linecap="round"
     stroke-linejoin="round"
     stroke-width=".611"
     id="path53" />
  <path
     d="M72.492,41.552c-.08-.138-.17-.287-.25-.425-.95-1.595-1.95-3.285-3-5.061-1.05-1.754-2.14-3.594-3.27-5.497-1.05-1.776-2.14-3.615-3.26-5.497-1.09-1.839-2.21-3.721-3.34-5.635-1.07-1.797-2.16-3.636-3.26-5.497"
     fill="none"
     stroke="#fffeff"
     stroke-linecap="round"
     stroke-linejoin="round"
     stroke-width=".611"
     id="path54" />
  <path
     d="M72.492,52.556c-.08-.138-.17-.276-.25-.425-.95-1.595-1.95-3.285-3-5.061-1.05-1.754-2.14-3.594-3.27-5.497-1.05-1.776-2.14-3.615-3.26-5.497-1.07-1.786-2.16-3.625-3.26-5.497-1.1-1.85-2.22-3.732-3.35-5.635-1.08-1.818-2.17-3.647-3.26-5.497-1.08-1.829-2.17-3.657-3.27-5.497"
     fill="none"
     stroke="#fffeff"
     stroke-linecap="round"
     stroke-linejoin="round"
     stroke-width=".611"
     id="path55" />
  <path
     d="M43.052,13.941c1.08,1.829,2.17,3.668,3.26,5.507s2.18,3.679,3.26,5.507c1.1,1.839,2.19,3.679,3.27,5.507,1.13,1.892,2.24,3.764,3.35,5.624,1.09,1.861,2.18,3.689,3.26,5.497,1.1,1.871,2.19,3.711,3.26,5.497,1.12,1.882,2.21,3.721,3.26,5.497,1.13,1.903,2.22,3.742,3.27,5.497,1.05,1.776,2.05,3.466,3,5.061.08.149.17.287.25.425"
     fill="none"
     stroke="#fffeff"
     stroke-linecap="round"
     stroke-linejoin="round"
     stroke-width=".611"
     id="path56" />
  <path
     d="M72.492,74.575c-.08-.138-.17-.276-.25-.425-.95-1.595-1.95-3.285-3-5.061-1.05-1.754-2.14-3.594-3.27-5.497-1.05-1.776-2.14-3.615-3.26-5.497-1.07-1.786-2.16-3.625-3.26-5.497-1.08-1.807-2.17-3.636-3.27-5.497-1.07-1.818-2.16-3.647-3.26-5.497-1.11-1.871-2.22-3.753-3.35-5.635-1.08-1.829-2.17-3.668-3.26-5.507s-2.18-3.679-3.26-5.507c-1.1-1.85-2.19-3.689-3.27-5.507-1.1-1.85-2.19-3.679-3.26-5.497"
     fill="none"
     stroke="#fffeff"
     stroke-linecap="round"
     stroke-linejoin="round"
     stroke-width=".611"
     id="path57" />
  <path
     d="M29.992,13.93c1.06,1.797,2.16,3.647,3.27,5.518,1.07,1.807,2.16,3.647,3.26,5.507,1.08,1.818,2.17,3.657,3.26,5.507,1.08,1.818,2.17,3.657,3.27,5.497,1.08,1.829,2.17,3.668,3.26,5.507,1.12,1.882,2.23,3.764,3.34,5.635,1.1,1.839,2.19,3.679,3.27,5.507,1.1,1.85,2.19,3.679,3.27,5.497,1.09,1.861,2.18,3.689,3.26,5.497,1.1,1.871,2.19,3.711,3.26,5.497,1.12,1.882,2.21,3.721,3.26,5.497,1.13,1.903,2.22,3.742,3.27,5.497,1.05,1.776,2.05,3.466,3,5.061.08.149.17.287.25.425"
     fill="none"
     stroke="#fffeff"
     stroke-linecap="round"
     stroke-linejoin="round"
     stroke-width=".611"
     id="path58" />
  <path
     d="M23.462,13.909v.011c1.05,1.776,2.14,3.615,3.26,5.518,1.07,1.786,2.16,3.625,3.27,5.507,1.07,1.797,2.15,3.636,3.26,5.507,1.08,1.807,2.17,3.657,3.27,5.518,1.08,1.818,2.17,3.647,3.26,5.497,1.08,1.829,2.17,3.668,3.27,5.507,1.11,1.871,2.22,3.753,3.34,5.635,1.09,1.839,2.18,3.679,3.26,5.507,1.1,1.85,2.19,3.679,3.27,5.497,1.1,1.85,2.19,3.689,3.26,5.507,1.1,1.85,2.19,3.689,3.27,5.486,1.1,1.871,2.19,3.711,3.26,5.507,1.12,1.882,2.21,3.721,3.26,5.497,1.13,1.903,2.22,3.742,3.27,5.497,1.05,1.776,2.05,3.466,3,5.061.09.138.17.276.25.415"
     fill="none"
     stroke="#fffeff"
     stroke-linecap="round"
     stroke-linejoin="round"
     stroke-width=".611"
     id="path59" />
  <path
     d="M13.682,107.725l.3-.51c.94-1.574,1.93-3.232,2.96-4.976,1.04-1.754,2.13-3.594,3.26-5.497,1.06-1.776,2.14-3.615,3.26-5.497,1.07-1.786,2.15-3.625,3.26-5.486,1.08-1.807,2.17-3.647,3.27-5.507,1.08-1.818,2.17-3.647,3.27-5.497,1.07-1.829,2.16-3.657,3.26-5.497,1.08-1.829,2.17-3.668,3.26-5.507s2.18-3.679,3.27-5.507c1.12-1.892,2.23-3.774,3.34-5.635,1.1-1.85,2.19-3.689,3.26-5.507,1.11-1.85,2.19-3.689,3.27-5.497,1.11-1.871,2.2-3.721,3.27-5.518,1.11-1.882,2.2-3.721,3.26-5.507,1.13-1.903,2.22-3.742,3.26-5.507,1.14-1.935,2.23-3.774,3.26-5.518,1.17-1.978,2.26-3.817,3.27-5.507"
     fill="none"
     stroke="#fffeff"
     stroke-linecap="round"
     stroke-linejoin="round"
     stroke-width=".611"
     id="path60" />
  <path
     d="M72.492,19.533c-.08.138-.17.276-.25.415-.87,1.478-1.88,3.19-3,5.103-1.01,1.69-2.1,3.54-3.27,5.518-1.03,1.733-2.12,3.583-3.26,5.507-1.04,1.765-2.13,3.604-3.26,5.507-1.06,1.786-2.15,3.636-3.27,5.518-1.06,1.797-2.15,3.636-3.26,5.507-1.07,1.807-2.16,3.647-3.27,5.507-1.1,1.861-2.21,3.742-3.34,5.635-1.08,1.829-2.17,3.668-3.26,5.507-1.09,1.829-2.18,3.668-3.27,5.507s-2.18,3.668-3.26,5.497c-1.1,1.85-2.19,3.679-3.27,5.497-1.09,1.85-2.18,3.689-3.26,5.507-1.1,1.861-2.19,3.689-3.27,5.497-1.11,1.871-2.19,3.7-3.26,5.497-1.12,1.882-2.2,3.721-3.26,5.497-1.13,1.892-2.22,3.732-3.26,5.486"
     fill="none"
     stroke="#fffeff"
     stroke-linecap="round"
     stroke-linejoin="round"
     stroke-width=".611"
     id="path61" />
  <path
     d="M72.492,30.537c-.08.138-.16.276-.25.425-.87,1.478-1.88,3.19-3,5.103-1.01,1.69-2.1,3.53-3.27,5.507-1.02,1.744-2.11,3.583-3.26,5.507-1.04,1.765-2.13,3.615-3.26,5.518-1.06,1.786-2.15,3.625-3.26,5.507-1.07,1.797-2.16,3.636-3.27,5.507-1.1,1.861-2.22,3.742-3.35,5.646-1.07,1.818-2.16,3.657-3.26,5.507-1.08,1.818-2.17,3.657-3.26,5.497-1.09,1.829-2.18,3.668-3.27,5.507s-2.18,3.679-3.26,5.507c-1.1,1.839-2.19,3.668-3.26,5.497-1.1,1.85-2.19,3.679-3.27,5.497-1.1,1.861-2.19,3.7-3.27,5.507-1.11,1.861-2.19,3.7-3.26,5.486"
     fill="none"
     stroke="#fffeff"
     stroke-linecap="round"
     stroke-linejoin="round"
     stroke-width=".611"
     id="path62" />
  <path
     d="M72.492,41.552c-.08.138-.17.276-.25.415-.87,1.478-1.88,3.19-3,5.103-1.01,1.69-2.1,3.53-3.27,5.507-1.03,1.744-2.12,3.583-3.26,5.518-1.04,1.765-2.13,3.604-3.26,5.507-1.06,1.786-2.15,3.625-3.27,5.518-1.09,1.839-2.21,3.721-3.34,5.635-1.07,1.807-2.16,3.647-3.27,5.507-1.07,1.818-2.16,3.657-3.26,5.507-1.08,1.818-2.17,3.657-3.26,5.497-1.09,1.829-2.18,3.668-3.27,5.507s-2.18,3.679-3.26,5.507c-1.1,1.839-2.19,3.668-3.26,5.497-1.1,1.85-2.19,3.679-3.27,5.497"
     fill="none"
     stroke="#fffeff"
     stroke-linecap="round"
     stroke-linejoin="round"
     stroke-width=".611"
     id="path63" />
  <path
     d="M72.492,52.556c-.08.138-.17.276-.25.415-.87,1.478-1.88,3.19-3,5.103-1.01,1.69-2.1,3.54-3.27,5.518-1.03,1.733-2.12,3.583-3.26,5.507-1.04,1.765-2.13,3.604-3.26,5.507-1.08,1.829-2.2,3.711-3.35,5.646-1.06,1.807-2.15,3.647-3.26,5.518-1.07,1.807-2.16,3.647-3.27,5.507-1.07,1.818-2.16,3.647-3.26,5.497-1.08,1.829-2.17,3.668-3.26,5.507-1.09,1.829-2.18,3.668-3.27,5.507s-2.18,3.668-3.26,5.497"
     fill="none"
     stroke="#fffeff"
     stroke-linecap="round"
     stroke-linejoin="round"
     stroke-width=".611"
     id="path64" />
  <path
     d="M43.052,113.286c1.09-1.839,2.18-3.679,3.26-5.497,1.1-1.85,2.19-3.689,3.26-5.507,1.11-1.861,2.2-3.7,3.27-5.507,1.11-1.871,2.2-3.711,3.26-5.507,1.12-1.882,2.21-3.721,3.27-5.507,1.15-1.956,2.27-3.838,3.34-5.646,1.14-1.935,2.23-3.774,3.26-5.518,1.17-1.978,2.26-3.817,3.27-5.507,1.12-1.914,2.13-3.625,3-5.103.09-.149.17-.287.25-.425"
     fill="none"
     stroke="#fffeff"
     stroke-linecap="round"
     stroke-linejoin="round"
     stroke-width=".611"
     id="path65" />
  <path
     d="M72.492,74.575c-.08.138-.17.276-.25.415-.87,1.478-1.88,3.19-3,5.103-1.01,1.69-2.1,3.54-3.27,5.518-1.05,1.776-2.17,3.657-3.34,5.635-1.04,1.765-2.13,3.615-3.26,5.518-1.06,1.786-2.15,3.625-3.27,5.507-1.06,1.797-2.15,3.636-3.26,5.507-1.07,1.807-2.16,3.647-3.27,5.507"
     fill="none"
     stroke="#fffeff"
     stroke-linecap="round"
     stroke-linejoin="round"
     stroke-width=".611"
     id="path66" />
  <path
     d="M56.112,113.286c1.11-1.882,2.2-3.721,3.26-5.507,1.13-1.903,2.22-3.753,3.26-5.518,1.15-1.924,2.23-3.764,3.26-5.507,1.2-2.031,2.32-3.923,3.35-5.646,1.12-1.914,2.13-3.625,3-5.103.09-.149.17-.287.25-.425"
     fill="none"
     stroke="#fffeff"
     stroke-linecap="round"
     stroke-linejoin="round"
     stroke-width=".611"
     id="path67" />
  <path
     d="M62.632,113.264c1.15-1.924,2.23-3.764,3.26-5.507,1.17-1.978,2.26-3.817,3.27-5.507,1.15-1.967,2.19-3.721,3.08-5.242.09-.149.17-.287.25-.425"
     fill="none"
     stroke="#fffeff"
     stroke-linecap="round"
     stroke-linejoin="round"
     stroke-width=".611"
     id="path68" />
  <path
     d="M69.152,113.254c1.16-1.956,2.19-3.721,3.09-5.231.06-.106.12-.202.17-.298"
     fill="none"
     stroke="#fffeff"
     stroke-linecap="round"
     stroke-linejoin="round"
     stroke-width=".611"
     id="path69" />
  <path
     d="M13.612,19.522c.12-.213.25-.425.37-.638.91-1.531,1.88-3.158,2.88-4.848"
     fill="none"
     stroke="#fffeff"
     stroke-linecap="round"
     stroke-linejoin="round"
     stroke-width=".611"
     id="path70" />
  <path
     d="M13.602,30.537c.13-.213.25-.425.38-.649.91-1.531,1.88-3.158,2.88-4.848,1.04-1.754,2.13-3.583,3.26-5.486,1.08-1.818,2.2-3.7,3.34-5.635v-.011"
     fill="none"
     stroke="#fffeff"
     stroke-linecap="round"
     stroke-linejoin="round"
     stroke-width=".611"
     id="path71" />
  <path
     d="M13.612,41.541c.12-.213.25-.425.37-.638.91-1.531,1.88-3.158,2.88-4.848,1.04-1.754,2.13-3.594,3.27-5.497,1.05-1.776,2.14-3.615,3.26-5.497,1.08-1.829,2.2-3.711,3.33-5.624,1.08-1.807,2.17-3.647,3.27-5.507"
     fill="none"
     stroke="#fffeff"
     stroke-linecap="round"
     stroke-linejoin="round"
     stroke-width=".611"
     id="path72" />
  <path
     d="M36.522,13.951c-1.1,1.839-2.19,3.668-3.26,5.497-1.1,1.85-2.19,3.679-3.27,5.497-1.13,1.903-2.25,3.785-3.35,5.635-1.1,1.861-2.19,3.7-3.25,5.486-1.12,1.892-2.21,3.732-3.27,5.507-1.13,1.903-2.22,3.732-3.26,5.486-1,1.69-1.97,3.317-2.88,4.848-.12.213-.25.425-.37.638"
     fill="none"
     stroke="#fffeff"
     stroke-linecap="round"
     stroke-linejoin="round"
     stroke-width=".611"
     id="path73" />
  <path
     d="M13.602,63.56c.13-.213.25-.425.38-.649.91-1.531,1.88-3.158,2.88-4.848,1.04-1.754,2.13-3.583,3.26-5.486,1.05-1.776,2.14-3.615,3.26-5.497,1.07-1.786,2.16-3.625,3.26-5.497,1.08-1.807,2.17-3.636,3.27-5.497s2.22-3.742,3.34-5.635c1.08-1.829,2.17-3.657,3.27-5.497,1.08-1.829,2.17-3.668,3.26-5.507s2.18-3.679,3.27-5.507"
     fill="none"
     stroke="#fffeff"
     stroke-linecap="round"
     stroke-linejoin="round"
     stroke-width=".611"
     id="path74" />
  <path
     d="M49.572,13.951c-1.07,1.818-2.16,3.647-3.26,5.497-1.08,1.818-2.17,3.657-3.26,5.507-1.09,1.829-2.18,3.668-3.27,5.507s-2.18,3.679-3.26,5.507c-1.12,1.882-2.24,3.753-3.34,5.624-1.1,1.85-2.19,3.679-3.27,5.497-1.1,1.861-2.19,3.7-3.27,5.507-1.1,1.861-2.19,3.7-3.25,5.486-1.12,1.882-2.21,3.721-3.26,5.497-1.13,1.903-2.22,3.742-3.27,5.497-1,1.69-1.97,3.317-2.88,4.848-.12.213-.25.425-.37.638"
     fill="none"
     stroke="#fffeff"
     stroke-linecap="round"
     stroke-linejoin="round"
     stroke-width=".611"
     id="path75" />
  <path
     d="M56.112,13.941c-1.07,1.797-2.16,3.636-3.27,5.507-1.07,1.807-2.16,3.647-3.27,5.507-1.07,1.818-2.16,3.657-3.26,5.507-1.08,1.818-2.17,3.657-3.26,5.497-1.09,1.829-2.18,3.668-3.27,5.507-1.12,1.882-2.23,3.764-3.34,5.635-1.1,1.839-2.19,3.679-3.26,5.507-1.11,1.85-2.2,3.679-3.27,5.497-1.1,1.861-2.19,3.689-3.27,5.497-1.1,1.861-2.19,3.7-3.25,5.486-1.12,1.892-2.21,3.732-3.27,5.507-1.13,1.903-2.22,3.732-3.26,5.486-1,1.69-1.97,3.317-2.88,4.848-.13.223-.25.436-.38.649"
     fill="none"
     stroke="#fffeff"
     stroke-linecap="round"
     stroke-linejoin="round"
     stroke-width=".611"
     id="path76" />
  <path
     d="M62.632,13.919c-1.04,1.776-2.13,3.615-3.26,5.518-1.06,1.786-2.15,3.625-3.27,5.507-1.06,1.807-2.15,3.647-3.26,5.518-1.07,1.807-2.16,3.647-3.27,5.507-1.07,1.818-2.16,3.647-3.26,5.497-1.08,1.829-2.17,3.668-3.26,5.507-1.11,1.871-2.23,3.753-3.35,5.635-1.09,1.839-2.18,3.679-3.26,5.507-1.1,1.85-2.19,3.679-3.26,5.497-1.1,1.85-2.19,3.679-3.27,5.497-1.1,1.861-2.19,3.689-3.27,5.497-1.1,1.871-2.19,3.7-3.25,5.497-1.12,1.882-2.21,3.721-3.26,5.497-1.14,1.903-2.23,3.742-3.27,5.497-1.01,1.69-1.97,3.317-2.88,4.848-.13.213-.25.425-.38.638"
     fill="none"
     stroke="#fffeff"
     stroke-linecap="round"
     stroke-linejoin="round"
     stroke-width=".611"
     id="path77" />
</svg>
